<svg width="40" height="40" viewBox="0 0 40 40" fill="none" xmlns="http://www.w3.org/2000/svg">
<g clip-path="url(#clip0_1546_6376)">
<path fill-rule="evenodd" clip-rule="evenodd" d="M40 1.86803C40 0.836727 39.1542 -6.10352e-05 38.1123 -6.10352e-05H1.89079C0.843796 -6.10352e-05 0 0.836727 0 1.86803V37.6552C0 38.6935 0.843796 39.5243 1.89079 39.5243H38.1123C39.1542 39.5243 40 38.6935 40 37.6552V1.86803Z" fill="white" stroke="#C4C6C8" stroke-width="0.0303407"/>
<path fill-rule="evenodd" clip-rule="evenodd" d="M13.9453 37.6374L35.4368 37.6391C36.8852 37.6391 38.0779 36.4629 38.0779 35.0312L38.0832 13.7854L13.9453 37.6374Z" fill="#00422B"/>
<path fill-rule="evenodd" clip-rule="evenodd" d="M38.0862 4.50107C38.0862 3.03874 36.8902 1.89006 35.4419 1.89006H27.533L1.91467 27.2363V35.0185C1.91467 36.4571 3.0731 37.6353 4.55485 37.6353L12.3343 37.637L38.0832 12.1906L38.0862 4.50107Z" fill="#AF0B35"/>
<path fill-rule="evenodd" clip-rule="evenodd" d="M4.5615 1.8849C3.08056 1.8849 1.91822 3.03047 1.91822 4.4944L1.91467 25.6156L25.9237 1.89075L4.5615 1.8849Z" fill="#00422B"/>
<path fill-rule="evenodd" clip-rule="evenodd" d="M14.8589 37.2765C14.8589 37.2765 16.2276 36.7293 17.5002 36.5123C17.9815 36.4051 20.7713 35.7567 20.6275 32.9209C20.5933 32.1828 19.48 33.1211 19.48 33.1211C19.48 33.1211 17.274 33.4278 16.3544 33.9938C15.8956 34.26 14.8698 35.3842 14.8589 37.2765Z" fill="#FFDC00" stroke="#9D1D26" stroke-width="0.0303407"/>
<path fill-rule="evenodd" clip-rule="evenodd" d="M24.325 28.189C24.325 28.189 24.8437 31.4011 22.2606 32.423C21.1621 32.8731 19.5163 33.3781 19.2616 33.6346C19.2616 33.6346 18.6742 31.4011 20.5833 30.0597C21.1963 29.6235 22.453 29.2048 23.2608 28.914C24.0401 28.6322 24.325 28.189 24.325 28.189Z" fill="#FFDC00" stroke="#9D1D26" stroke-width="0.0303407"/>
<path fill-rule="evenodd" clip-rule="evenodd" d="M25.6599 24.2177C25.6599 24.2177 27.2711 26.1643 25.4643 28.3948C25.0761 28.9095 23.1433 30.1476 22.657 30.7244C22.657 30.7244 21.693 28.6502 22.8556 26.962C23.174 26.4816 24.2744 25.5922 24.7577 25.2405C25.2423 24.8839 25.6599 24.2177 25.6599 24.2177Z" fill="#FFDC00" stroke="#9D1D26" stroke-width="0.0303407"/>
<path fill-rule="evenodd" clip-rule="evenodd" d="M23.6991 19.9747C23.6991 19.9747 22.1901 20.8451 23.1922 23.3283C23.2886 23.6162 24.4587 25.6835 24.4972 26.2565C24.4972 26.2565 26.5881 24.9752 25.7422 22.3623C25.6124 21.8829 24.6375 20.3588 23.6991 19.9747Z" fill="#FFDC00" stroke="#9D1D26" stroke-width="0.0303407"/>
<path fill-rule="evenodd" clip-rule="evenodd" d="M19.8505 16.5868C19.8505 16.5868 19.3327 18.1531 20.5611 19.6259C21.0788 20.2264 23.4006 20.9308 24.402 21.6639C24.402 21.6639 25.6264 17.7091 19.8505 16.5868Z" fill="#FFDC00" stroke="#9D1D26" stroke-width="0.0303407"/>
<path fill-rule="evenodd" clip-rule="evenodd" d="M16.63 13.7854C16.63 13.7854 21.6522 14.1421 20.977 18.6866C20.977 18.6866 19.8412 17.9831 18.9157 17.6155C18.5129 17.4179 16.5091 16.7921 16.63 14.9301C16.6634 14.4182 16.63 13.7854 16.63 13.7854Z" fill="#FFDC00" stroke="#9D1D26" stroke-width="0.0303407"/>
<path fill-rule="evenodd" clip-rule="evenodd" d="M16.7231 9.46661C16.7231 9.46661 14.8525 10.8691 15.7839 13.2271C15.951 13.6742 16.9189 14.9546 17.4329 15.1785C17.4329 15.1785 18.0155 13.5466 18.3711 12.3672C18.5018 11.8868 18.8575 10.0081 17.691 9.27415C17.0768 8.92547 16.7231 9.46661 16.7231 9.46661Z" fill="#FFDC00" stroke="#9D1D26" stroke-width="0.0303407"/>
<path fill-rule="evenodd" clip-rule="evenodd" d="M16.333 10.8634C16.333 10.8634 14.8835 6.65112 20.0775 5.5083C20.0775 5.5083 21.2379 7.13437 19.3374 8.82365C18.8236 9.3022 16.6619 10.3859 16.333 10.8634Z" fill="#FFDC00" stroke="#9D1D26" stroke-width="0.0303407"/>
<path fill-rule="evenodd" clip-rule="evenodd" d="M24.4315 2.30725C24.4315 2.30725 19.0431 2.18358 19.27 6.95319C19.27 6.95319 22.6442 5.92818 23.553 4.93962C24.0023 4.42578 24.4914 3.45982 24.4315 2.30725Z" fill="#FFDC00" stroke="#9D1D26" stroke-width="0.0303407"/>
</g>
<defs>
<clipPath id="clip0_1546_6376">
<rect width="40" height="40" fill="white"/>
</clipPath>
</defs>
</svg>
