<svg width="23" height="16" viewBox="0 0 23 16" fill="none" xmlns="http://www.w3.org/2000/svg">
<path d="M0 2.49785V4.92308H3.46338L0 2.49785ZM2.87015 16H8V12.408L2.87015 16ZM14.1538 12.4086V16H19.2831L14.1538 12.4086ZM0 11.0769V13.5022L3.46462 11.0769H0ZM19.2843 0H14.1538V3.592L19.2843 0ZM22.1538 13.5028V11.0769H18.6886L22.1538 13.5028ZM22.1538 4.92308V2.49785L18.6898 4.92308H22.1538ZM8 0H2.87015L8 3.592V0Z" fill="#00247D"/>
<path d="M15.4708 11.077L21.4474 15.2622C21.7393 14.9615 21.9491 14.5909 22.0567 14.1859L17.6167 11.077H15.4708ZM8.00006 11.077H6.68253L0.706526 15.2616C1.02714 15.5877 1.43822 15.821 1.89914 15.9293L8.00006 11.6573V11.077ZM14.1539 4.92311H15.4714L21.4474 0.738493C21.1213 0.407585 20.708 0.176048 20.2554 0.0708008L14.1539 4.3428V4.92311ZM6.68253 4.92311L0.706526 0.738493C0.414805 1.0394 0.204873 1.4099 0.0966797 1.8148L4.53668 4.92311H6.68253Z" fill="#CF1B2B"/>
<path d="M22.1538 9.84615H12.9231V16H14.1538V12.4086L19.2831 16H19.6923C20.0192 16.0001 20.3429 15.9348 20.6443 15.8081C20.9457 15.6814 21.2187 15.4958 21.4474 15.2622L15.4708 11.0769H17.6166L22.0566 14.1858C22.1138 13.9785 22.1538 13.7637 22.1538 13.5385V13.5028L18.6886 11.0769H22.1538V9.84615ZM0 9.84615V11.0769H3.46462L0 13.5022V13.5385C0 14.2098 0.270154 14.8172 0.706462 15.2615L6.68246 11.0769H8V11.6572L1.89908 15.9286C2.08 15.9717 2.26708 16 2.46154 16H2.87015L8 12.408V16H9.23077V9.84615H0ZM22.1538 2.46154C22.1542 1.8166 21.9004 1.19751 21.4474 0.738462L15.4714 4.92308H14.1538V4.34277L20.2554 0.0707693C20.071 0.0255553 19.8821 0.00180803 19.6923 2.32848e-07H19.2843L14.1538 3.592V2.32848e-07H12.9231V6.15385H22.1538V4.92308H18.6898L22.1538 2.49785V2.46154ZM8 2.32848e-07V3.592L2.87015 2.32848e-07H2.46154C2.13454 -0.00014226 1.81081 0.065116 1.5094 0.191936C1.20799 0.318755 0.934993 0.504575 0.706462 0.738462L6.68246 4.92308H4.53662L0.0966154 1.81477C0.035557 2.02505 0.00306056 2.24259 0 2.46154L0 2.49785L3.46338 4.92308H0V6.15385H9.23077V2.32848e-07H8Z" fill="#EEEEEE"/>
<path d="M12.9231 6.15385V0H9.23077V6.15385H0V9.84615H9.23077V16H12.9231V9.84615H22.1538V6.15385H12.9231Z" fill="#CF1B2B"/>
</svg>
