<svg width="23" height="16" viewBox="0 0 23 16" fill="none" xmlns="http://www.w3.org/2000/svg">
<path d="M19.6923 0H2.46154C1.8087 0 1.1826 0.25934 0.720968 0.720968C0.25934 1.1826 0 1.8087 0 2.46154L0 13.5385C0 14.1913 0.25934 14.8174 0.720968 15.279C1.1826 15.7407 1.8087 16 2.46154 16H19.6923C20.3451 16 20.9713 15.7407 21.4329 15.279C21.8945 14.8174 22.1538 14.1913 22.1538 13.5385V2.46154C22.1538 1.8087 21.8945 1.1826 21.4329 0.720968C20.9713 0.25934 20.3451 0 19.6923 0Z" fill="#DA251D"/>
<path d="M12.1557 6.79205L11.0769 3.47205L9.99815 6.79205H6.50769L9.33169 8.84312L8.25292 12.1631L11.0769 10.1114L13.9009 12.1631L12.8222 8.84312L15.6462 6.79205H12.1557Z" fill="#FFFF00"/>
</svg>
