<svg width="16" height="16" viewBox="0 0 16 16" fill="none" xmlns="http://www.w3.org/2000/svg">
<path d="M14.6667 11.667H10" stroke="#E7AB21" stroke-width="1.5" stroke-miterlimit="10" stroke-linecap="round" stroke-linejoin="round"/>
<path d="M3.33325 11.667H1.33325" stroke="#E7AB21" stroke-width="1.5" stroke-miterlimit="10" stroke-linecap="round" stroke-linejoin="round"/>
<path d="M14.6667 4.33301H12.6667" stroke="#E7AB21" stroke-width="1.5" stroke-miterlimit="10" stroke-linecap="round" stroke-linejoin="round"/>
<path d="M5.99992 4.33301H1.33325" stroke="#E7AB21" stroke-width="1.5" stroke-miterlimit="10" stroke-linecap="round" stroke-linejoin="round"/>
<path d="M4.66659 9.66699H8.66659C9.39992 9.66699 9.99992 10.0003 9.99992 11.0003V12.3337C9.99992 13.3337 9.39992 13.667 8.66659 13.667H4.66659C3.93325 13.667 3.33325 13.3337 3.33325 12.3337V11.0003C3.33325 10.0003 3.93325 9.66699 4.66659 9.66699Z" stroke="#E7AB21" stroke-width="1.5" stroke-miterlimit="10" stroke-linecap="round" stroke-linejoin="round"/>
<path d="M7.33333 2.33301H11.3333C12.0667 2.33301 12.6667 2.66634 12.6667 3.66634V4.99967C12.6667 5.99967 12.0667 6.33301 11.3333 6.33301H7.33333C6.6 6.33301 6 5.99967 6 4.99967V3.66634C6 2.66634 6.6 2.33301 7.33333 2.33301Z" stroke="#E7AB21" stroke-width="1.5" stroke-miterlimit="10" stroke-linecap="round" stroke-linejoin="round"/>
</svg>
