<svg width="20" height="18" viewBox="0 0 20 18" fill="none" xmlns="http://www.w3.org/2000/svg">
<path d="M16.7188 0.75C17 0.4375 17.4688 0.4375 17.75 0.75L19.75 2.75C19.9062 2.875 20 3.0625 20 3.25C20 3.46875 19.9062 3.65625 19.75 3.78125L17.75 5.78125C17.4688 6.09375 17 6.09375 16.7188 5.78125C16.4062 5.5 16.4062 5.03125 16.7188 4.71875L17.4375 4H12C11.5625 4 11.25 3.6875 11.25 3.25C11.25 2.84375 11.5625 2.5 12 2.5H17.4375L16.7188 1.78125C16.4062 1.5 16.4062 1.03125 16.7188 0.75ZM3.25 12.2812L2.53125 13H7.96875C8.40625 13 8.71875 13.3438 8.71875 13.75C8.71875 14.1875 8.40625 14.5 7.96875 14.5H2.53125L3.25 15.2188C3.5625 15.5312 3.5625 16 3.25 16.2812C2.96875 16.5938 2.5 16.5938 2.21875 16.2812L0.21875 14.2812C0.0625 14.1562 0 13.9688 0 13.75C0 13.5625 0.0625 13.375 0.21875 13.2188L2.21875 11.2188C2.5 10.9375 2.96875 10.9375 3.25 11.2188C3.5625 11.5312 3.5625 12 3.25 12.2812ZM2.96875 2.5H10.5312C10.4375 2.75 10.375 3 10.375 3.25C10.375 4.15625 11.0938 4.875 12 4.875H15.0312C15.125 5.4375 15.4375 5.90625 15.9062 6.1875C15.9688 6.28125 16.0312 6.34375 16.0938 6.40625C16.7188 7.0625 17.75 7.0625 18.375 6.40625L19 5.8125V12.5C19 13.625 18.0938 14.5 17 14.5H9.4375C9.53125 14.2812 9.59375 14.0312 9.59375 13.75C9.59375 12.875 8.875 12.125 7.96875 12.125H4.9375C4.84375 11.5938 4.53125 11.125 4.0625 10.8438C4 10.75 3.9375 10.6875 3.875 10.625C3.25 9.96875 2.21875 9.96875 1.59375 10.625L0.96875 11.2188V4.5C0.96875 3.40625 1.875 2.5 2.96875 2.5ZM2.96875 6.5C4.09375 6.5 4.96875 5.625 4.96875 4.5H2.96875V6.5ZM17 12.5V10.5C15.875 10.5 15 11.4062 15 12.5H17ZM9.96875 11.5C11.6562 11.5 13 10.1562 13 8.5C13 6.84375 11.6562 5.5 9.96875 5.5C8.3125 5.5 6.96875 6.84375 6.96875 8.5C6.96875 10.1562 8.3125 11.5 9.96875 11.5Z" fill="#4FD08A"/>
</svg>
