<svg width="18" height="18" viewBox="0 0 18 18" fill="none" xmlns="http://www.w3.org/2000/svg">
<path d="M6.21875 1.0625C6.375 0.71875 6.71875 0.5 7.09375 0.5H10.875C11.25 0.5 11.5938 0.71875 11.75 1.0625L12 1.5H15C15.5312 1.5 16 1.96875 16 2.5C16 3.0625 15.5312 3.5 15 3.5H3C2.4375 3.5 2 3.0625 2 2.5C2 1.96875 2.4375 1.5 3 1.5H6L6.21875 1.0625ZM14.3125 15.0938C14.2812 15.9062 13.625 16.5 12.8125 16.5H5.15625C4.34375 16.5 3.6875 15.9062 3.65625 15.0938L2.96875 4.5H15L14.3125 15.0938Z" fill="#F04A47"/>
</svg>
