<svg width="14" height="14" viewBox="0 0 14 14" fill="none" xmlns="http://www.w3.org/2000/svg">
<path fill-rule="evenodd" clip-rule="evenodd" d="M1.27792 1.27792C2.11196 0.443876 3.36002 0.125 4.96875 0.125H8.71875C10.3275 0.125 11.5755 0.443876 12.4096 1.27792C13.2436 2.11196 13.5625 3.36002 13.5625 4.96875V8.71875C13.5625 10.3275 13.2436 11.5755 12.4096 12.4096C11.5755 13.2436 10.3275 13.5625 8.71875 13.5625H4.96875C3.36002 13.5625 2.11196 13.2436 1.27792 12.4096C0.443876 11.5755 0.125 10.3275 0.125 8.71875V4.96875C0.125 3.36002 0.443876 2.11196 1.27792 1.27792ZM1.94083 1.94083C1.36862 2.51304 1.0625 3.45248 1.0625 4.96875V8.71875C1.0625 10.235 1.36862 11.1745 1.94083 11.7467C2.51304 12.3189 3.45248 12.625 4.96875 12.625H8.71875C10.235 12.625 11.1745 12.3189 11.7467 11.7467C12.3189 11.1745 12.625 10.235 12.625 8.71875V4.96875C12.625 3.45248 12.3189 2.51304 11.7467 1.94083C11.1745 1.36862 10.235 1.0625 8.71875 1.0625H4.96875C3.45248 1.0625 2.51304 1.36862 1.94083 1.94083Z" fill="#E2E2E2"/>
<path d="M9.04129 7.64928L8.54956 6.71783L7.24235 10.0344L7.24147 10.0366C7.18715 10.1724 7.11212 10.3085 7.00567 10.4179C6.89715 10.5294 6.73094 10.6359 6.51562 10.6359C6.30031 10.6359 6.1341 10.5294 6.02558 10.4179C5.91913 10.3085 5.8441 10.1724 5.78978 10.0366L5.78915 10.035L5.07728 8.23659L5.07703 8.23598C5.03103 8.12145 4.92607 7.99196 4.77497 7.88937C4.62377 7.78671 4.46573 7.73768 4.34441 7.7375L4.34375 7.7375L0.595313 7.75C0.33643 7.75086 0.125866 7.5417 0.125003 7.28281C0.12414 7.02393 0.333306 6.81337 0.592188 6.8125L4.34375 6.8C4.69109 6.8 5.02963 6.9291 5.30159 7.11376C5.57366 7.29848 5.8186 7.5656 5.94772 7.88841L5.94835 7.88998L6.51531 9.32232L7.80129 6.05964C7.89156 5.83001 8.098 5.51248 8.48299 5.49206C8.86661 5.47172 9.10604 5.76398 9.22078 5.98116L9.87121 7.21322C9.91888 7.30395 10.0224 7.41386 10.1694 7.50251C10.3165 7.59122 10.4617 7.63125 10.5625 7.63125H13.1C13.3589 7.63125 13.5688 7.84112 13.5688 8.1C13.5688 8.35888 13.3589 8.56875 13.1 8.56875H10.5625C10.2508 8.56875 9.93973 8.45878 9.68526 8.3053C9.43081 8.15184 9.18739 7.92711 9.04129 7.64928Z" fill="#E2E2E2"/>
</svg>
