<svg width="20" height="20" viewBox="0 0 20 20" fill="none" xmlns="http://www.w3.org/2000/svg">
<path fill-rule="evenodd" clip-rule="evenodd" d="M9.6875 3.28125C6.14943 3.28125 3.28125 6.14943 3.28125 9.6875C3.28125 13.2256 6.14943 16.0938 9.6875 16.0938C13.2256 16.0938 16.0938 13.2256 16.0938 9.6875C16.0938 6.14943 13.2256 3.28125 9.6875 3.28125ZM4.21875 9.6875C4.21875 6.66719 6.66719 4.21875 9.6875 4.21875C12.7078 4.21875 15.1562 6.66719 15.1562 9.6875C15.1562 12.7078 12.7078 15.1562 9.6875 15.1562C6.66719 15.1562 4.21875 12.7078 4.21875 9.6875Z" fill="#E7AB21"/>
<path d="M15.3315 14.6685C15.1484 14.4855 14.8516 14.4855 14.6685 14.6685C14.4855 14.8516 14.4855 15.1484 14.6685 15.3315L15.9185 16.5815C16.1016 16.7645 16.3984 16.7645 16.5815 16.5815C16.7645 16.3984 16.7645 16.1016 16.5815 15.9185L15.3315 14.6685Z" fill="#E7AB21"/>
</svg>
